<svg
  width="24"
  height="24"
  viewBox="0 0 51 51"
  fill="none"
  xmlns="http://www.w3.org/2000/svg"
>
  <path
    fillRule="evenodd"
    clipRule="evenodd"
    d="M40.1192 10.8803C39.8651 10.96 39.5577 11.0616 39.1793 11.1878L16.1082 18.8782C13.7095 19.6777 12.0611 20.2306 10.9953 20.7491C10.5244 20.9782 10.2818 21.1466 10.1606 21.2499C10.2818 21.3531 10.5244 21.5215 10.9953 21.7506C12.0611 22.2691 13.7095 22.822 16.1082 23.6216L21.9516 25.5694C22.0122 25.5896 22.0733 25.6097 22.1348 25.63C22.8744 25.8737 23.6747 26.1375 24.2684 26.7311C24.8621 27.3248 25.1258 28.1251 25.3696 28.8647C25.3898 28.9263 25.41 28.9874 25.4301 29.0479L27.378 34.8913C28.1775 37.29 28.7304 38.9384 29.2489 40.0042C29.478 40.4752 29.6464 40.7177 29.7497 40.8389C29.8529 40.7177 30.0213 40.4752 30.2504 40.0042C30.7689 38.9384 31.3218 37.29 32.1214 34.8913L39.8117 11.8203C39.9379 11.4418 40.0396 11.1344 40.1192 10.8803ZM41.0292 10.6574C41.0291 10.6575 41.026 10.6577 41.0201 10.6575C41.0264 10.6572 41.0294 10.6573 41.0292 10.6574ZM40.342 9.97944C40.3418 9.97358 40.342 9.97041 40.3421 9.97029C40.3422 9.97017 40.3423 9.9731 40.342 9.97944ZM29.6291 40.9516C29.6291 40.951 29.6339 40.9475 29.6436 40.9434C29.634 40.9502 29.6291 40.9523 29.6291 40.9516ZM29.8558 40.9434C29.8655 40.9476 29.8703 40.951 29.8702 40.9516C29.8702 40.9523 29.8654 40.9502 29.8558 40.9434ZM10.0479 21.1293C10.0486 21.1293 10.052 21.1341 10.0561 21.1438C10.0493 21.1342 10.0473 21.1293 10.0479 21.1293ZM10.0561 21.356C10.052 21.3657 10.0486 21.3705 10.0479 21.3704C10.0473 21.3704 10.0493 21.3656 10.0561 21.356ZM40.3596 7.72167C40.9518 7.61632 41.9255 7.55241 42.6863 8.31324C43.4471 9.07407 43.3832 10.0477 43.2779 10.6399C43.175 11.2184 42.938 11.9288 42.6895 12.6737L42.6578 12.7689L34.9674 35.84L34.9287 35.9561C34.1772 38.2109 33.5639 40.0508 32.9482 41.3166C32.3832 42.478 31.4614 43.9253 29.7497 43.9253C28.038 43.9253 27.1162 42.478 26.5512 41.3166C25.9354 40.0508 25.3222 38.2109 24.5706 35.9562L24.5319 35.84L22.5841 29.9966C22.4207 29.5065 22.3274 29.2307 22.2406 29.031C22.2018 28.9418 22.1757 28.8954 22.1613 28.8726C22.1545 28.8618 22.1504 28.8565 22.149 28.8547L22.1471 28.8525L22.1448 28.8505C22.1431 28.8491 22.1377 28.845 22.127 28.8382C22.1041 28.8238 22.0577 28.7977 21.9685 28.7589C21.7688 28.6721 21.4931 28.5788 21.003 28.4154L15.1595 26.4676L15.0434 26.4289C12.7887 25.6774 10.9487 25.0641 9.68294 24.4484C8.52156 23.8834 7.07422 22.9616 7.07422 21.2499C7.07422 19.5382 8.52156 18.6164 9.68294 18.0514C10.9487 17.4356 12.7886 16.8223 15.0434 16.0708L15.1595 16.0321L38.2306 8.34175C38.2624 8.33115 38.2941 8.32056 38.3258 8.31C39.0707 8.06153 39.7811 7.82458 40.3596 7.72167Z"
    fill="white"
  />
</svg>